<svg width="222" height="38" viewBox="0 0 222 38" fill="none" xmlns="http://www.w3.org/2000/svg">
<path d="M102.183 1.39194L114.855 34.467H112.743L108.251 22.735H96.0815L91.5892 34.4339H89.4436L102.183 1.39194ZM102.149 6.8934L96.9531 20.4151H107.346L102.116 6.8934H102.149Z" fill="white"/>
<path d="M141.407 1.29251V34.467H139.596V7.82136L129.405 23.7624L119.18 7.82136V34.467H117.336V1.29251L129.405 20.0505L141.407 1.29251Z" fill="white"/>
<path d="M159.409 18.6917H149.62V32.0808H163.634V34.467H147.206V2.35304H161.924V4.73921H149.62V16.3055H159.409V18.6917Z" fill="white"/>
<path d="M74.6593 15.4439H66.8145V26.1485H78.0117V28.0707H64.8701V2.35304H76.6707V4.27524H66.8145V13.5217H74.6593V15.4439Z" fill="white"/>
<path d="M84.2138 35.8258L84.1803 35.7264L83.6439 30.954L78.7157 30.3906L83.6439 29.8604L84.2138 24.9886L84.7502 29.8604L89.2425 30.3575L89.6783 30.3906L89.1754 30.4569L84.7502 30.954L84.2138 35.7264V35.8258Z" fill="white"/>
<path d="M85.8565 29.1313C85.8565 29.1313 85.6889 29.0981 85.6218 29.0318C85.5548 28.9656 85.5212 28.8993 85.5212 28.7998C85.4877 28.4021 85.5883 28.0044 85.7894 27.673C87.9685 24.4252 89.276 20.4814 89.276 16.2724C89.276 10.4395 86.7952 5.13691 82.8728 1.39194C87.298 5.17005 90.1141 10.7709 90.1141 17.0015C90.1141 21.4425 88.6725 25.5851 86.2588 28.9655C86.1917 29.0981 86.0241 29.1313 85.89 29.1313" fill="white"/>
<path d="M89.2425 16.2724C89.2425 10.4395 86.7616 5.13691 82.8393 1.39194C87.2645 5.17005 90.0806 10.7709 90.0806 17.0347C90.0806 21.4756 88.6725 25.6183 86.2252 28.9655C86.1582 29.0981 85.9906 29.1313 85.8565 29.1313C85.7559 29.1313 85.6889 29.0981 85.6218 29.0318C85.5548 28.9656 85.5212 28.8993 85.5212 28.7998C85.4877 28.4021 85.5883 28.0044 85.7894 27.673C87.9685 24.4252 89.276 20.4814 89.276 16.2724" fill="white"/>
<path d="M84.1803 35.7264L83.6439 30.9209L78.7157 30.3906L83.6439 29.8604L84.1803 24.9886L84.7166 29.8604L89.2089 30.3575C89.2089 30.3575 89.1754 30.4238 89.1419 30.4569L84.7166 30.954L84.1803 35.7264Z" fill="#F4C45B"/>
<path d="M82.5711 32.8431C82.5711 32.8431 82.3364 33.0419 82.2358 33.1082C78.6487 35.9584 74.1229 37.9137 69.1612 37.9137C65.0377 37.9137 59.6067 36.5218 56.3213 34.4007C55.8855 34.0693 55.4832 33.7379 55.0474 33.4396L54.6451 33.0751L40.7324 20.6802H47.2361C51.0244 20.6802 55.0809 17.7306 55.0809 12.5606C55.0809 8.84874 52.2313 4.70607 47.1356 4.70607H39.5925V34.467H37.1788V2.35304H47.1356C53.6729 2.35304 57.4947 7.58937 57.4947 12.5937C57.4947 18.1615 53.4047 22.7018 48.6107 22.7018C47.5043 22.7018 46.0628 22.4367 45.7946 22.3373L54.6786 31.1529C58.1316 34.5664 62.691 36.6543 67.5521 36.8532C67.6861 36.8532 67.8202 36.8532 67.9879 36.8532C68.122 36.8532 68.2561 36.8532 68.3902 36.8532H68.6248C68.6248 36.8532 68.8595 36.8532 68.9936 36.8532C69.0942 36.8532 69.1947 36.8532 69.3288 36.8532C72.5472 36.7206 75.5644 35.8589 78.2464 34.4339C78.347 34.4007 78.414 34.3344 78.5146 34.3013C78.6152 34.235 78.7157 34.2019 78.7828 34.1356C78.9839 34.0362 79.1851 33.9036 79.3862 33.771C79.7215 33.5722 80.0232 33.3733 80.3249 33.1414C80.5596 32.9757 80.7607 32.8431 80.9954 32.6774C80.9954 32.6774 81.2301 32.4785 81.3642 32.4123C81.3642 32.4123 81.5989 32.2465 81.6994 32.1471C81.6994 32.1471 81.6994 32.1471 81.7329 32.114C81.8335 32.0146 81.9341 31.9483 82.0682 31.8488C82.2023 31.7494 82.3364 31.6831 82.504 31.6831C82.504 31.6831 82.5375 31.6831 82.5711 31.6831C82.7722 31.6831 82.9063 31.8488 82.9063 32.0146C82.9398 32.346 82.8057 32.6442 82.5711 32.8431Z" fill="white"/>
<path d="M5.79975 6.95968C12.4376 0.729109 22.8973 0.994241 29.1999 7.55623C32.3512 10.8372 33.8598 15.0462 33.7593 19.2551C33.6587 23.4309 31.9154 27.5736 28.63 30.6889C21.9921 36.9195 11.5325 36.6543 5.22984 30.0924C4.82754 29.6615 4.42525 29.1975 4.05648 28.7336C4.52582 29.1975 5.02869 29.6615 5.56508 30.0592C5.59861 30.0592 5.66566 30.1255 5.69918 30.1586C5.73271 30.1586 5.76623 30.2249 5.79975 30.2249C6.4032 30.6889 7.04016 31.0535 7.71066 31.418C12.974 34.1025 19.6119 33.3733 24.1377 29.1313C29.8704 23.7624 30.0716 14.781 24.607 9.08073C22.8638 7.25796 20.7517 5.99859 18.5056 5.30262C18.5056 5.30262 18.5056 5.30262 18.472 5.30262C13.7451 3.74497 8.34762 4.73921 4.4923 8.38476C4.89459 7.92078 5.33041 7.45681 5.79975 6.99283" fill="#4FDEDC"/>
<path d="M6.67139 9.61099C6.83902 11.9309 6.93959 14.2176 7.00664 16.6038C7.61008 16.1067 8.18 15.6427 8.74992 15.1787C8.4482 15.8084 7.9118 16.2724 7.44246 16.869C9.38688 16.9352 11.2978 17.0678 13.1416 17.3661C11.2643 17.6643 9.35336 17.7969 7.37541 17.8301C7.87828 18.4929 8.38115 19.0231 8.71639 19.686C8.18 19.222 7.64361 18.7249 7.07369 18.2277C6.93959 21.575 6.80549 24.856 6.67139 28.1702C6.57082 28.2364 6.5373 28.1702 6.50377 28.0707C6.36967 24.7897 6.23557 21.5087 6.10148 18.1615C5.49803 18.6254 4.96164 19.1888 4.29115 19.5203C4.76049 18.9569 5.22984 18.4266 5.73271 17.7969C3.78828 17.7638 1.87738 17.5981 0 17.3329C1.87738 17.0347 3.78828 16.9021 5.76623 16.869C5.26336 16.2393 4.82754 15.6759 4.3582 15.0793C5.02869 15.477 5.56508 16.0073 6.16853 16.5707C6.23557 14.1845 6.33615 11.8646 6.50377 9.57785C6.5373 9.51157 6.60434 9.51157 6.63787 9.57785" fill="#F4C45B"/>
<path d="M220.223 22.8344C219.251 26.6788 217.273 29.9929 214.624 32.578C214.356 32.8431 214.088 33.0751 213.82 33.3071C213.686 33.4065 213.585 33.5059 213.451 33.6053C209.965 36.2235 205.64 37.98 200.98 37.98C196.823 37.98 191.425 36.5881 188.14 34.467C187.738 34.1356 187.302 33.8042 186.866 33.5059L186.464 33.1414L172.551 20.7465H179.055C182.843 20.7465 186.9 17.7969 186.9 12.6269C186.9 8.91503 184.05 4.77236 178.954 4.77236H171.411V34.467H168.997V2.35304H178.954C185.525 2.35304 189.313 7.58937 189.313 12.5937C189.313 18.1615 185.223 22.7018 180.429 22.7018C179.323 22.7018 177.881 22.4367 177.613 22.3373L186.497 31.1529C189.917 34.5664 194.51 36.6543 199.371 36.8532C199.505 36.8532 199.639 36.8532 199.807 36.8532C199.941 36.8532 200.075 36.8532 200.209 36.8532H200.444C200.444 36.8532 200.678 36.8532 200.812 36.8532C200.913 36.8532 201.047 36.8532 201.148 36.8532C204.366 36.7206 207.383 35.8589 210.065 34.4339C210.166 34.4007 210.233 34.3344 210.333 34.3013C210.434 34.2682 210.501 34.2019 210.601 34.1356C210.803 34.0362 211.004 33.9036 211.205 33.771C211.54 33.5722 211.842 33.3734 212.144 33.1414C212.378 32.9757 212.579 32.8431 212.781 32.6774C212.881 32.578 213.015 32.5117 213.149 32.4123C213.149 32.4123 213.283 32.2797 213.384 32.2465C213.384 32.2134 213.451 32.1803 213.485 32.1471C216.401 29.4958 218.614 25.9828 219.62 21.9064C221.028 16.2393 219.921 10.539 217.005 5.9323C220.391 10.6715 221.765 16.7695 220.257 22.8013" fill="white"/>
<path d="M213.853 33.3071C213.853 33.3071 213.619 33.5059 213.485 33.6053L213.853 33.3071Z" fill="white"/>
<path d="M216.435 10.7378L215.898 5.9323L210.97 5.40204L215.898 4.87178L216.435 0L216.971 4.87178L221.463 5.3689C221.463 5.3689 221.43 5.43518 221.396 5.46832L216.971 5.96544L216.435 10.7378Z" fill="#F4C45B"/>
<path d="M202.556 16.6701C206.545 16.8358 209.629 20.1831 209.462 24.1269C209.361 26.1154 208.489 27.8387 207.115 29.0981C205.74 30.3243 203.897 31.0535 201.919 30.954C197.929 30.7883 194.845 27.441 195.013 23.4972C195.013 23.2321 195.046 22.967 195.08 22.735C195.08 23.0332 195.08 23.3315 195.113 23.5966C195.113 23.5966 195.113 23.6298 195.113 23.6629C195.113 23.6629 195.113 23.6961 195.113 23.7292C195.147 24.0606 195.214 24.392 195.314 24.6903C196.052 27.1428 198.298 28.9987 201.013 29.0981C204.466 29.2638 207.383 26.5794 207.551 23.1658C207.584 22.0721 207.35 21.0448 206.914 20.1168C205.975 18.1615 204.031 16.8027 201.684 16.7032C201.952 16.7032 202.254 16.7032 202.522 16.7032" fill="white"/>
<path d="M201.282 16.6701C197.292 16.2061 194.443 12.66 194.912 8.71618C195.147 6.76084 196.152 5.07063 197.627 3.91068C199.069 2.78387 200.98 2.18733 202.958 2.41932C206.947 2.8833 209.797 6.42942 209.328 10.3732C209.328 10.6384 209.26 10.9035 209.193 11.1355C209.193 10.8372 209.227 10.539 209.193 10.2738C209.193 10.2738 209.193 10.2407 209.193 10.2075C209.193 10.2075 209.193 10.1744 209.193 10.1413C209.193 9.80984 209.126 9.47843 209.059 9.18016C208.489 6.66141 206.377 4.67293 203.662 4.34152C200.209 3.94382 197.091 6.39628 196.689 9.80984C196.555 10.9035 196.722 11.964 197.125 12.892C197.929 14.9136 199.773 16.405 202.086 16.6701C201.818 16.6701 201.516 16.6701 201.248 16.6038" fill="white"/>
<path d="M203.561 16.9684L201.65 16.8027L201.047 18.6254L201.215 16.7032L199.337 16.1067L201.282 16.2724L201.818 14.5822C201.818 14.5822 201.818 14.5822 201.852 14.6153L201.684 16.3387L203.494 16.9352" fill="#F4C45B"/>
</svg>
