<svg viewBox="0 -25 1177 1155" xmlns="http://www.w3.org/2000/svg">
    <g>
        <path d="M200.271 132.489C430.738 -86.7051 794.307 -77.4434 1013.07 153.482C1122.14 268.944 1174.51 417.749 1170.82 565.319C1167.12 712.889 1107.35 858.606 992.114 968.512C761.647 1187.71 398.078 1178.44 179.32 947.518C164.531 932.082 150.974 916.029 138.649 899.975C155.287 916.646 172.541 932.082 191.028 946.283C192.261 947.518 194.109 948.753 195.342 949.988C196.574 950.606 197.806 951.841 199.039 952.458C219.99 968.512 242.791 982.095 265.591 993.827C265.591 993.827 265.591 993.827 266.207 993.827C449.84 1088.3 679.69 1062.36 836.826 912.941C1035.87 723.385 1043.26 407.252 852.848 206.582C792.458 142.985 719.128 98.5288 640.868 73.8309C640.868 73.8309 640.252 73.8309 639.636 73.8309C475.722 18.8781 287.775 54.0728 154.055 181.884C168.228 165.213 183.633 148.542 199.655 133.106" fill="url(#paint0_linear_719_4215)"/>
        <path d="M230.466 225.723C236.012 306.609 239.709 388.112 241.558 472.084C263.126 454.178 282.229 438.125 301.948 421.454C290.856 443.682 272.985 460.353 256.964 481.346C324.748 483.198 390.683 488.138 455.386 498.635C389.451 508.514 324.132 513.453 255.115 515.306C272.369 538.151 290.239 557.292 301.948 580.755C283.461 564.084 264.974 547.413 244.639 528.889C239.709 646.822 235.396 762.902 230.466 878.982C226.769 880.834 226.153 877.747 224.92 875.894C220.607 760.432 215.677 644.969 211.363 527.655C189.796 544.326 171.925 563.466 148.509 575.815C164.531 556.057 181.169 536.916 199.039 515.306C130.639 514.071 65.3193 508.514 0 499.252C65.3193 488.138 131.255 483.816 200.271 481.963C183.017 460.353 166.996 439.36 150.974 418.984C173.774 432.568 192.261 451.091 213.828 471.467C216.293 386.877 219.99 305.991 225.536 225.106C227.385 223.253 229.234 223.253 230.466 225.106" fill="url(#paint1_linear_719_4215)"/>
    </g>
    <defs>
        <linearGradient id="paint0_linear_719_4215" x1="-98.4246" y1="646.583" x2="1706.03" y2="646.583" gradientUnits="userSpaceOnUse">
            <stop stop-color="#4FDEDC"/>
            <stop offset="1" stop-color="#F4C45B"/>
        </linearGradient>
        <linearGradient id="paint1_linear_719_4215" x1="-98.4246" y1="646.583" x2="1706.03" y2="646.583" gradientUnits="userSpaceOnUse">
            <stop stop-color="#4FDEDC"/>
            <stop offset="1" stop-color="#F4C45B"/>
        </linearGradient>
    </defs>
</svg>
